<?xml version="1.0" encoding="UTF-8"?>
<svg id="Layer_2" data-name="Layer 2" xmlns="http://www.w3.org/2000/svg" width="250" height="118.45" viewBox="0 0 250 118.45">
  <defs>
    <style>
      .cls-1 {
        fill: #fff;
        stroke-width: 0px;
      }
    </style>
  </defs>
  <g id="Capa_1" data-name="Capa 1">
    <g>
      <g>
        <g>
          <path class="cls-1" d="M0,83.94h8.46c2.08,0,3.67.4,4.77,1.19,1.1.79,1.66,1.94,1.66,3.44s-.55,2.65-1.66,3.45c-1.11.8-2.7,1.2-4.77,1.2h-2.37v-1.07h1.43c1.41,0,2.41-.29,3-.86.59-.57.89-1.48.89-2.72s-.29-2.14-.87-2.7c-.58-.56-1.59-.84-3.01-.84h-2.29v12.47c0,.23.01.4.04.5s.12.24.29.4c.16.16.43.29.8.41.37.11.88.23,1.53.34v.21H0v-.21c.57-.16.99-.32,1.26-.5.27-.18.42-.34.47-.48.05-.14.07-.36.07-.66v-11.7c0-.3-.02-.52-.07-.66-.05-.14-.2-.3-.47-.48-.27-.18-.69-.35-1.26-.5v-.21Z"/>
          <path class="cls-1" d="M35.84,85.81v8.06c0,1.87-.6,3.29-1.8,4.26-1.2.97-2.98,1.46-5.34,1.46-2.51,0-4.39-.49-5.63-1.48-1.24-.99-1.86-2.4-1.86-4.24v-8.06c0-.3-.02-.52-.07-.66-.05-.14-.2-.3-.47-.48-.27-.18-.69-.35-1.26-.5v-.21h7.03v.21c-.57.16-.99.33-1.26.5-.27.18-.42.34-.47.48-.05.14-.07.36-.07.66v8.23c0,1.44.38,2.5,1.13,3.16.75.66,1.96,1,3.61,1s2.83-.35,3.63-1.05c.8-.7,1.2-1.79,1.2-3.28v-8.06c0-.3-.03-.52-.09-.66-.06-.14-.27-.3-.64-.48-.37-.18-.96-.35-1.76-.5v-.21h6v.21c-.61.16-1.05.33-1.33.5-.28.18-.44.34-.49.48-.05.14-.07.36-.07.66Z"/>
          <path class="cls-1" d="M57.02,96.01l-.29,3.36h-13.89v-.21c.57-.16.99-.32,1.26-.5.27-.18.42-.34.47-.48.05-.14.07-.36.07-.66v-11.7c0-.3-.02-.52-.07-.66-.05-.14-.2-.3-.47-.48-.27-.18-.69-.35-1.26-.5v-.21h13.8v3.36h-.29c-.48-.93-.88-1.54-1.2-1.83-.32-.29-.75-.44-1.29-.44h-5.8v5.96h5.94v1.07h-5.94v6.22h5.89c.55,0,1-.13,1.33-.4.33-.26.81-.89,1.44-1.88h.29Z"/>
          <path class="cls-1" d="M71.87,91.64v.11c1.77.06,3.11.42,4.01,1.08.9.66,1.36,1.48,1.36,2.45,0,2.73-2.31,4.09-6.94,4.09h-7.94v-.21c.57-.16.99-.32,1.26-.5.27-.18.42-.34.47-.48.05-.14.07-.36.07-.66v-11.7c0-.3-.02-.52-.07-.66-.05-.14-.2-.3-.47-.48-.27-.18-.69-.35-1.26-.5v-.21h8.12c1.92,0,3.39.31,4.4.93,1.01.62,1.51,1.63,1.51,3.03,0,1.04-.37,1.9-1.11,2.56-.74.66-1.88,1.05-3.4,1.17ZM67.59,98.28h1.91c1.5,0,2.59-.21,3.26-.62.67-.41,1-1.21,1-2.38s-.36-1.93-1.07-2.36-1.84-.64-3.39-.64h-.86v-1.09h.66c1.33,0,2.3-.23,2.9-.69.6-.46.9-1.27.9-2.44s-.3-1.97-.9-2.39c-.6-.42-1.56-.63-2.87-.63h-1.54v13.24Z"/>
          <path class="cls-1" d="M96.45,99.37h-13.89v-.21c.57-.16.99-.32,1.26-.5.27-.18.42-.34.47-.48.05-.14.07-.36.07-.66v-11.7c0-.3-.02-.52-.07-.66-.05-.14-.2-.3-.47-.48-.27-.18-.69-.35-1.26-.5v-.21h7.03v.21c-.57.16-.99.33-1.26.5-.27.18-.42.34-.47.48-.05.14-.07.36-.07.66v12.47h5.89c.55,0,1-.13,1.33-.4.33-.26.81-.89,1.44-1.88h.29l-.29,3.36Z"/>
          <path class="cls-1" d="M102.44,97.49c-1.69-1.4-2.53-3.34-2.53-5.83s.85-4.43,2.54-5.83c1.7-1.4,3.87-2.1,6.51-2.1s4.85.7,6.54,2.1c1.7,1.4,2.54,3.34,2.54,5.83s-.85,4.43-2.54,5.83c-1.7,1.4-3.88,2.1-6.54,2.1s-4.84-.7-6.53-2.1ZM103.42,91.66c0,4.64,1.85,6.97,5.54,6.97s5.57-2.32,5.57-6.97-1.86-6.97-5.57-6.97-5.54,2.32-5.54,6.97Z"/>
          <path class="cls-1" d="M142.71,91.64v.11c1.77.06,3.11.42,4.01,1.08.9.66,1.36,1.48,1.36,2.45,0,2.73-2.31,4.09-6.94,4.09h-7.94v-.21c.57-.16.99-.32,1.26-.5.27-.18.42-.34.47-.48.05-.14.07-.36.07-.66v-11.7c0-.3-.02-.52-.07-.66-.05-.14-.2-.3-.47-.48-.27-.18-.69-.35-1.26-.5v-.21h8.12c1.92,0,3.39.31,4.4.93,1.01.62,1.51,1.63,1.51,3.03,0,1.04-.37,1.9-1.11,2.56-.74.66-1.88,1.05-3.4,1.17ZM138.43,98.28h1.91c1.5,0,2.59-.21,3.26-.62.67-.41,1-1.21,1-2.38s-.36-1.93-1.07-2.36-1.84-.64-3.39-.64h-.86v-1.09h.66c1.33,0,2.3-.23,2.9-.69.6-.46.9-1.27.9-2.44s-.3-1.97-.9-2.39c-.6-.42-1.56-.63-2.87-.63h-1.54v13.24Z"/>
          <path class="cls-1" d="M155.9,97.49c-1.69-1.4-2.53-3.34-2.53-5.83s.85-4.43,2.54-5.83c1.7-1.4,3.87-2.1,6.51-2.1s4.85.7,6.54,2.1c1.7,1.4,2.54,3.34,2.54,5.83s-.85,4.43-2.54,5.83c-1.7,1.4-3.88,2.1-6.54,2.1s-4.84-.7-6.53-2.1ZM156.88,91.66c0,4.64,1.85,6.97,5.54,6.97s5.57-2.32,5.57-6.97-1.86-6.97-5.57-6.97-5.54,2.32-5.54,6.97Z"/>
          <path class="cls-1" d="M194.66,83.94v.21c-.61.16-1.05.33-1.33.5-.28.18-.44.34-.49.48-.05.14-.07.36-.07.66v13.61h-1.24l-11.47-12.15v10.24c0,.3.03.52.09.66.06.14.28.3.67.48.39.18,1,.35,1.81.5v.21h-5.92v-.21c.61-.16,1.06-.32,1.34-.5.29-.18.45-.34.5-.48.05-.14.07-.36.07-.67v-11.75l-1.71-1.81h4.34l10.06,10.65v-8.79c0-.3-.03-.52-.09-.66-.06-.14-.28-.3-.67-.48-.39-.18-1-.35-1.81-.5v-.21h5.91Z"/>
          <path class="cls-1" d="M205.5,85.81v11.7c0,.3.02.52.07.66.05.14.2.3.47.48.27.18.69.35,1.26.5v.21h-7.03v-.21c.57-.16.99-.32,1.26-.5.27-.18.42-.34.47-.48.05-.14.07-.36.07-.66v-11.7c0-.3-.02-.52-.07-.66-.05-.14-.2-.3-.47-.48-.27-.18-.69-.35-1.26-.5v-.21h7.03v.21c-.57.16-.99.33-1.26.5-.27.18-.42.34-.47.48-.05.14-.07.36-.07.66Z"/>
          <path class="cls-1" d="M226.8,87.31h-.29c-.48-.93-.88-1.54-1.21-1.83-.33-.29-.76-.44-1.27-.44h-2.86v12.47c0,.3.02.52.07.66.05.14.2.3.47.48.27.18.69.35,1.26.5v.21h-7.03v-.21c.57-.16.99-.32,1.26-.5.27-.18.42-.34.47-.48.05-.14.07-.36.07-.66v-12.47h-2.86c-.53,0-.97.15-1.3.44-.33.29-.73.9-1.19,1.83h-.29v-3.36h14.69v3.36Z"/>
          <path class="cls-1" d="M234.38,97.49c-1.69-1.4-2.53-3.34-2.53-5.83s.85-4.43,2.54-5.83c1.7-1.4,3.87-2.1,6.51-2.1s4.85.7,6.54,2.1c1.7,1.4,2.54,3.34,2.54,5.83s-.85,4.43-2.54,5.83c-1.7,1.4-3.88,2.1-6.54,2.1s-4.84-.7-6.53-2.1ZM235.37,91.66c0,4.64,1.85,6.97,5.54,6.97s5.57-2.32,5.57-6.97-1.86-6.97-5.57-6.97-5.54,2.32-5.54,6.97Z"/>
        </g>
        <path class="cls-1" d="M105.99,41.52c2.6,0,4.54.23,6.22.66.94,2.38,2.53,4.44,4.54,5.95-3.82-1.85-6.32-3.47-9.71-4.22-4.64-1.02-8.76-1.29-13.26-1.27-.03-.19-.06-.37-.09-.56,5.34-.15,8.78-.57,12.31-.57ZM151.07,19.09c-.09-.13-.17-.25-.26-.37-2.79,2.63-4.22,3.87-6.19,5.54-3.62,3.05-6.28,5.16-7.6,6.18.64,1.14,1.12,2.38,1.41,3.69,1.35-1.77,4.14-5.35,7.59-9.42,1.77-2.09,3.17-3.73,5.06-5.62ZM129.66,5.78c.01,2.84-.18,5.35-.48,8.99-.15,1.88-.68,6.42-.98,9,1.29.31,2.52.8,3.64,1.45-.28-2.06-.71-5.26-.9-7.11-.61-5.86-.76-7.78-.87-12.26-.14-.02-.28-.04-.42-.06ZM156.23,42.65c.03-.19.06-.37.09-.56-5.34-.15-8.78-.57-12.31-.57-2.6,0-4.54.23-6.22.66-.94,2.38-2.53,4.44-4.54,5.95,3.82-1.85,6.32-3.47,9.71-4.22,4.64-1.02,8.76-1.29,13.26-1.27ZM162.13,38.12c-4.23.07-5.83,0-9.25-.27-3.58-.29-5.7-.49-10.83-1.08.24-.28,1.09-1.39,1.21-1.52.23-.02,3.65-.63,8.68-1.15,1.67-.17,3.29-.27,4.59-.32-.02-.17-.04-.35-.06-.52-1.6-.04-2.79-.12-4.44-.28-2.1-.2-3.18-.29-6.31-.75.26-.29,2.27-2.72,2.43-2.9,2.27-.17,2.8-.2,4.65-.26.88-.03,1.82-.06,2.85-.07-.04-.15-.08-.3-.12-.45-.67,0-1.5-.02-2.59-.05-2.84-.07-3.73-.18-3.93-.19,1.96-2.27,3.23-3.65,4.53-4.99-.07-.15-.15-.3-.22-.45-2.78,2.71-3.79,3.62-6.53,5.94-2.58,2.18-3.79,3.25-8.14,6.68.06.54.1,1.08.1,1.63,0,1.22-.16,2.4-.46,3.52,1.59-.22,4.87-.64,9.65-1.14,6.06-.62,10.21-.82,14.16-.8,0-.2.02-.41.02-.61ZM151.27,10.89c-2.35,2.46-2.73,2.76-6.75,6.3-4.49,3.95-8.52,7.02-8.62,7.1l-.23-2.2s2.65-3.36,5.37-6.56c1.19-1.4,2.34-2.6,3.27-3.52-.13-.1-.26-.2-.39-.29-.75.73-1.66,1.59-2.65,2.5-2.73,2.49-5.88,4.91-5.88,4.91-.03-.61-.34-4.05-.34-4.07.03-.03,1.62-1.92,3.78-4.24.5-.53.96-1.03,1.38-1.48-.14-.08-.28-.15-.42-.22-.3.3-.63.62-.99.96-2.65,2.48-3.72,3.4-3.86,3.51-.15-2.1-.19-4.78-.21-6.61-.16-.05-.33-.1-.5-.16,0,2.21-.08,6.07-.42,10.5-.19,2.43-.59,6.38-.83,8.65,1.3.93,2.42,2.08,3.33,3.39,2.02-2.69,2.57-3.37,5.69-7.18,4.42-5.41,6.23-7.43,9.67-10.85-.14-.14-.28-.28-.42-.43ZM104,24.71c3.45,4.07,6.23,7.64,7.59,9.42.29-1.31.77-2.55,1.41-3.69-1.32-1.02-3.99-3.13-7.6-6.18-1.97-1.67-3.4-2.9-6.19-5.54-.09.12-.18.25-.26.37,1.9,1.89,3.29,3.53,5.06,5.62ZM120.81,14.77c-.29-3.64-.49-6.16-.48-8.99-.14.02-.28.04-.42.06-.11,4.49-.25,6.4-.87,12.26-.19,1.85-.62,5.05-.9,7.11,1.12-.65,2.35-1.14,3.64-1.45-.3-2.57-.83-7.11-.98-9ZM87.9,38.73c3.94-.02,8.1.17,14.16.8,4.78.49,8.06.92,9.65,1.14-.3-1.13-.46-2.31-.46-3.52,0-.55.03-1.1.1-1.63-4.36-3.44-5.56-4.5-8.14-6.68-2.75-2.32-3.75-3.23-6.53-5.94-.07.15-.15.3-.22.45,1.3,1.34,2.57,2.72,4.53,4.99-.19.01-1.09.11-3.93.19-1.09.03-1.92.04-2.59.05-.04.15-.08.3-.12.45,1.03.01,1.97.04,2.85.07,1.85.06,2.38.1,4.65.26.16.18,2.17,2.6,2.43,2.9-3.13.46-4.21.55-6.31.75-1.64.15-2.83.24-4.44.28-.02.17-.04.35-.06.52,1.31.05,2.92.15,4.59.32,5.03.52,8.46,1.12,8.68,1.15.11.13.97,1.24,1.21,1.52-5.14.59-7.25.79-10.83,1.08-3.42.28-5.02.34-9.25.27,0,.2.01.41.02.61ZM116.17,17.31c-.34-4.43-.41-8.29-.42-10.5-.17.05-.33.1-.5.16-.01,1.83-.06,4.5-.21,6.61-.14-.11-1.21-1.03-3.86-3.51-.35-.33-.69-.65-.99-.96-.14.07-.28.15-.42.22.42.45.88.94,1.38,1.48,2.16,2.32,3.75,4.21,3.78,4.24,0,.03-.3,3.47-.34,4.07,0,0-3.15-2.43-5.88-4.91-.99-.9-1.9-1.77-2.65-2.5-.13.1-.26.19-.39.29.93.92,2.08,2.13,3.27,3.52,2.72,3.2,5.35,6.53,5.37,6.56l-.23,2.2c-.1-.09-4.13-3.15-8.62-7.1-4.01-3.54-4.4-3.84-6.75-6.3-.14.14-.28.28-.42.43,3.44,3.42,5.26,5.44,9.67,10.85,3.11,3.82,3.67,4.49,5.69,7.18.91-1.31,2.03-2.46,3.33-3.39-.24-2.27-.64-6.22-.83-8.65ZM126.93,23.52c-.22-1.97-.59-5.42-1.04-10.54-.5-5.66-.62-11.89-.64-12.99-.08,0-.16,0-.24,0s-.16,0-.24,0c-.02,1.1-.14,7.33-.64,12.99-.46,5.12-.82,8.57-1.04,10.54.63-.09,1.27-.14,1.93-.14s1.3.05,1.93.14ZM94.85,46.96c.07.21.14.42.21.62,1.34-.27,2.95-.42,4.78-.42,11.45,0,12.83,6.93,25.16,6.93,12.33,0,13.71-6.93,25.16-6.93,1.83,0,3.44.15,4.78.42.07-.21.14-.41.21-.62-1.83-.45-4.47-.84-6.82-.84-11.3,0-12.48,4.86-23.34,4.86-10.85,0-12.04-4.86-23.34-4.86-2.35,0-4.99.39-6.82.84ZM97.02,52.06c.1.18.2.37.3.55,0,0,.01,0,.02,0,1.49-.25,3.19-.35,5.07-.25,9.72.51,11.53,6.74,22.59,6.74,11.06,0,12.87-6.23,22.59-6.74,1.88-.1,3.57,0,5.07.25,0,0,.01,0,.02,0,.1-.18.2-.37.3-.55-.61-.15-1.46-.3-2.31-.42-1.51-.2-3.17-.25-4.7-.17-9.04.51-11.09,4.68-20.97,4.68-9.88,0-11.93-4.16-20.97-4.68-1.54-.09-3.19-.04-4.7.17-.85.11-1.69.27-2.31.42ZM100.08,56.74c.14.18.28.35.42.53,1.48-.12,2.97-.08,4.48.11,7.98,1.02,10.23,6.55,20.02,6.55,9.79,0,12.03-5.53,20.02-6.55,1.51-.19,3-.23,4.48-.11.14-.17.28-.35.42-.53-.56-.1-1.4-.2-2.14-.26-1.41-.11-2.84-.02-4.18.17-6.77.94-9.7,4.49-18.6,4.49-8.9,0-11.83-3.55-18.6-4.49-1.34-.19-2.77-.28-4.18-.17-.74.06-1.58.16-2.14.26ZM125,65.97c-9.93,0-13.35-4.82-19.89-4.82-.24,0-.51,0-.78.01.21.18.42.35.63.53,8.26.63,10.43,6.81,20.05,6.81,9.61,0,11.79-6.18,20.05-6.81.21-.17.42-.35.63-.53-.27,0-.55-.01-.78-.01-6.54,0-9.96,4.82-19.89,4.82Z"/>
      </g>
      <g>
        <path class="cls-1" d="M34.27,116.15c0,1.52-1.71,2.14-4.33,2.14h-4.85v-8.89h4.39c2.7,0,4.43.6,4.43,2.08v.54c0,.89-.65,1.42-1.77,1.68,1.34.24,2.14.81,2.14,1.92v.53ZM31.21,111.83c0-.74-.93-.87-2.16-.87h-1.25v2.12h1.23c1.25,0,2.18-.09,2.18-.82v-.43ZM31.58,115.38c0-.81-.97-.95-2.12-.95h-1.66v2.29h1.67c1.19,0,2.1-.17,2.1-.92v-.42Z"/>
        <path class="cls-1" d="M37.57,118.3v-8.89h7.81c.09.45.09,1.1,0,1.55h-5.1v2.09h4.91c.09.45.09,1.09,0,1.52h-4.91v2.17h5.1c.09.43.09,1.12,0,1.55h-7.81Z"/>
        <path class="cls-1" d="M51.37,114.56l-3.96-5.15c.78-.05,2.03-.05,2.81,0l2.55,3.65,2.59-3.65c.76-.05,1.95-.05,2.73,0l-4,5.13v3.76c-.76.05-1.93.05-2.72,0v-3.73Z"/>
        <path class="cls-1" d="M70.28,116.04c0,1.81-2.01,2.42-5.02,2.42s-5.02-.6-5.02-2.42v-4.4c0-1.8,1.99-2.41,5.02-2.41s5.02.6,5.02,2.41v4.4ZM67.57,111.97c0-1.01-1.08-1.14-2.31-1.14s-2.31.13-2.31,1.14v3.71c0,1.01,1.1,1.14,2.31,1.14s2.31-.13,2.31-1.14v-3.71Z"/>
        <path class="cls-1" d="M76.48,112.56v5.73c-.86.07-1.84.07-2.72,0v-8.89c.95-.05,2.01-.05,2.94,0l4.43,5.85v-5.85c.97-.05,1.82-.05,2.72,0v8.89c-.99.05-1.99.05-2.99,0l-4.37-5.73Z"/>
        <path class="cls-1" d="M87.56,118.3v-8.89h4.56c3.24,0,5.21.6,5.21,2.41v4.08c0,1.79-1.97,2.41-5.21,2.41h-4.56ZM94.63,112.17c0-1-1.13-1.16-2.51-1.16h-1.84v5.65h1.84c1.38,0,2.51-.17,2.51-1.13v-3.37Z"/>
        <path class="cls-1" d="M113.14,114.6h-4.41v3.69c-.76.05-1.92.05-2.72,0v-8.89c.8-.05,1.95-.05,2.72,0v3.51h4.41v-3.51c.78-.05,1.95-.05,2.72,0v8.89c-.76.05-1.93.05-2.72,0v-3.69Z"/>
        <path class="cls-1" d="M129.38,116.04c0,1.81-2.01,2.42-5.02,2.42s-5.02-.6-5.02-2.42v-4.4c0-1.8,1.99-2.41,5.02-2.41s5.02.6,5.02,2.41v4.4ZM126.66,111.97c0-1.01-1.08-1.14-2.31-1.14s-2.31.13-2.31,1.14v3.71c0,1.01,1.1,1.14,2.31,1.14s2.31-.13,2.31-1.14v-3.71Z"/>
        <path class="cls-1" d="M140.76,116.34c0,1.54-1.71,2.12-4.56,2.12-1.13,0-2.55-.05-3.83-.2-.11-.45-.11-1.16,0-1.6,1.47.13,2.68.2,3.79.2,1.04,0,1.9-.11,1.9-.8v-.43c0-.58-.24-.63-1.3-.87l-2.62-.6c-1.13-.26-1.8-.68-1.8-1.92v-.88c0-1.55,1.88-2.12,4.63-2.12,1.21,0,2.27.05,3.66.26.13.43.13,1.12,0,1.55-1.45-.17-2.42-.22-3.59-.22s-2.01.09-2.01.8v.37c0,.49.28.58,1.41.85l2.53.6c1.15.28,1.79.63,1.79,1.92v.97Z"/>
        <path class="cls-1" d="M153.3,112.96c0,1.72-1.97,2.31-5.15,2.31h-1.47v3.02c-.76.05-1.9.07-2.72,0v-8.89h4.19c3.18,0,5.15.6,5.15,2.35v1.2ZM150.58,112.13c0-.96-1.1-1.12-2.44-1.12h-1.47v2.68h1.47c1.34,0,2.44-.16,2.44-1.09v-.47Z"/>
        <path class="cls-1" d="M156.5,109.41c.8-.05,1.95-.05,2.72,0v8.89c-.76.05-1.92.05-2.72,0v-8.89Z"/>
        <path class="cls-1" d="M165.44,110.96h-3.55c-.09-.43-.09-1.1,0-1.55h9.82c.07.45.07,1.12,0,1.55h-3.55v7.34c-.76.05-1.93.05-2.72,0v-7.34Z"/>
        <path class="cls-1" d="M181.14,116.38h-4.19l-.84,1.92c-.78.05-1.99.05-2.77,0l4.43-8.89c.82-.05,1.8-.05,2.62,0l4.43,8.89c-.8.05-2.03.05-2.83,0l-.86-1.92ZM179.06,111.63l-1.43,3.22h2.85l-1.41-3.22Z"/>
        <path class="cls-1" d="M187.52,118.3v-8.89c.82-.05,1.95-.05,2.72,0v7.34h5c.09.43.09,1.12,0,1.55h-7.72Z"/>
        <path class="cls-1" d="M197.96,109.41c.8-.05,1.95-.05,2.72,0v8.89c-.76.05-1.92.05-2.72,0v-8.89Z"/>
        <path class="cls-1" d="M206.9,110.96h-3.55c-.09-.43-.09-1.1,0-1.55h9.82c.07.45.07,1.12,0,1.55h-3.55v7.34c-.76.05-1.93.05-2.72,0v-7.34Z"/>
        <path class="cls-1" d="M218.47,114.56l-3.96-5.15c.78-.05,2.03-.05,2.81,0l2.55,3.65,2.59-3.65c.76-.05,1.95-.05,2.73,0l-4,5.13v3.76c-.76.05-1.93.05-2.72,0v-3.73Z"/>
      </g>
    </g>
  </g>
</svg>